<svg width="200" height="30" viewBox="0 0 200 30" fill="none" xmlns="http://www.w3.org/2000/svg" role="img" aria-label="Webume logo">
  <!-- Logo mark with different blue shades -->
  <path d="M6.10906 8.18354C6.06525 7.54778 6.54768 6.99706 7.18659 6.95346L20.0044 6.07892C20.6433 6.03533 21.1968 6.51537 21.2406 7.15113L22.1195 19.9057C22.1633 20.5415 21.6808 21.0922 21.0419 21.1358L8.22411 22.0103C7.5852 22.0539 7.03175 21.5739 6.98794 20.9381L6.10906 8.18354Z" fill="#004182"/>
  <path d="M8.46651 13.1319C8.20427 11.2381 9.53458 9.49127 11.4378 9.23033L19.5706 8.1153C21.4739 7.85436 23.2294 9.17811 23.4916 11.072L24.6122 19.1647C24.8744 21.0585 23.5441 22.8053 21.6408 23.0663L13.508 24.1813C11.6048 24.4423 9.84929 23.1185 9.58706 21.2246L8.46651 13.1319Z" fill="#0A66C2"/>
  <path d="M11.6794 19.6209C10.8253 15.5409 13.4568 11.5444 17.557 10.6944C21.6572 9.84448 25.6736 12.463 26.5277 16.543C27.3819 20.623 24.7504 24.6195 20.6502 25.4695C16.5499 26.3194 12.5336 23.7009 11.6794 19.6209Z" fill="#66A9E6"/>

  <!-- Brand text: Webume -->
  <text x="32" y="21"
        font-family="Inter, Segoe UI, Roboto, Arial, sans-serif"
        font-size="13"
        font-weight="600"
        letter-spacing=".4"
        fill="#0A66C2">
    Webume
  </text>
</svg>
